<mxfile host="65bd71144e" pages="2">
    <diagram id="piDafpqhtRUU5qUU-vj8" name="Page-1">
        <mxGraphModel dx="867" dy="637" grid="1" gridSize="10" guides="1" tooltips="1" connect="1" arrows="1" fold="1" page="1" pageScale="1" pageWidth="827" pageHeight="1169" background="#ffffff" math="0" shadow="0">
            <root>
                <mxCell id="0"/>
                <mxCell id="1" parent="0"/>
                <mxCell id="3" value="Logo" style="rounded=0;whiteSpace=wrap;html=1;fontColor=#000000;fillColor=#666666;" vertex="1" parent="1">
                    <mxGeometry x="60" y="20" width="120" height="60" as="geometry"/>
                </mxCell>
                <mxCell id="4" value="Nhan Vien" style="rounded=1;whiteSpace=wrap;html=1;fontColor=#000000;fillColor=#666666;" vertex="1" parent="1">
                    <mxGeometry x="240" y="30" width="80" height="40" as="geometry"/>
                </mxCell>
                <mxCell id="5" value="Phong Ban" style="rounded=1;whiteSpace=wrap;html=1;fontColor=#000000;fillColor=#666666;" vertex="1" parent="1">
                    <mxGeometry x="360" y="30" width="80" height="40" as="geometry"/>
                </mxCell>
                <mxCell id="6" value="Bang Luong" style="rounded=1;whiteSpace=wrap;html=1;fontColor=#000000;fillColor=#666666;" vertex="1" parent="1">
                    <mxGeometry x="480" y="30" width="80" height="40" as="geometry"/>
                </mxCell>
                <mxCell id="7" value="" style="endArrow=none;fontColor=#000000;labelBackgroundColor=#000000;labelBorderColor=#000000;spacing=2;verticalAlign=middle;html=1;strokeColor=#000000;" edge="1" parent="1">
                    <mxGeometry width="50" height="50" relative="1" as="geometry">
                        <mxPoint x="40" y="100" as="sourcePoint"/>
                        <mxPoint x="800" y="100" as="targetPoint"/>
                    </mxGeometry>
                </mxCell>
                <mxCell id="8" value="" style="endArrow=none;html=1;fontColor=#000000;strokeColor=#000000;" edge="1" parent="1">
                    <mxGeometry width="50" height="50" relative="1" as="geometry">
                        <mxPoint x="40" y="279.9999999999999" as="sourcePoint"/>
                        <mxPoint x="800" y="279.9999999999999" as="targetPoint"/>
                    </mxGeometry>
                </mxCell>
                <mxCell id="9" value="" style="endArrow=none;html=1;fontColor=#000000;strokeColor=#000000;" edge="1" parent="1">
                    <mxGeometry width="50" height="50" relative="1" as="geometry">
                        <mxPoint x="40" y="919.9999999999999" as="sourcePoint"/>
                        <mxPoint x="800" y="919.9999999999999" as="targetPoint"/>
                    </mxGeometry>
                </mxCell>
                <mxCell id="12" value="Ung Dung Quan Li Nhan Su v1.0" style="text;html=1;strokeColor=none;fillColor=none;align=center;verticalAlign=middle;whiteSpace=wrap;rounded=0;fontSize=22;fontColor=#000000;" vertex="1" parent="1">
                    <mxGeometry x="100" y="160" width="330" height="30" as="geometry"/>
                </mxCell>
                <mxCell id="13" value="Nhan Vien" style="text;html=1;strokeColor=none;fillColor=none;align=center;verticalAlign=middle;whiteSpace=wrap;rounded=0;fontSize=22;fontColor=#000000;" vertex="1" parent="1">
                    <mxGeometry x="90" y="430" width="170" height="30" as="geometry"/>
                </mxCell>
                <mxCell id="14" value="Nhan Vien" style="text;html=1;strokeColor=none;fillColor=none;align=center;verticalAlign=middle;whiteSpace=wrap;rounded=0;fontSize=18;fontStyle=1;fontColor=#000000;" vertex="1" parent="1">
                    <mxGeometry x="160" y="370" width="110" height="30" as="geometry"/>
                </mxCell>
                <mxCell id="15" value="App&amp;nbsp; &amp;nbsp;&amp;gt;" style="text;html=1;strokeColor=none;fillColor=none;align=center;verticalAlign=middle;whiteSpace=wrap;rounded=0;fontSize=18;fontColor=#000000;" vertex="1" parent="1">
                    <mxGeometry x="80" y="370" width="110" height="30" as="geometry"/>
                </mxCell>
                <mxCell id="20" value="" style="endArrow=none;html=1;fontSize=18;fontColor=#000000;labelBackgroundColor=#2A2A2A;strokeColor=#666666;" edge="1" parent="1">
                    <mxGeometry width="50" height="50" relative="1" as="geometry">
                        <mxPoint x="80" y="480" as="sourcePoint"/>
                        <mxPoint x="760" y="480" as="targetPoint"/>
                    </mxGeometry>
                </mxCell>
                <mxCell id="21" value="Search" style="strokeWidth=1;shadow=0;dashed=0;align=center;html=1;shape=mxgraph.mockup.buttons.button;strokeColor=#666666;fontColor=#000000;mainText=;buttonStyle=round;fontSize=17;fontStyle=1;fillColor=#008cff;whiteSpace=wrap;" vertex="1" parent="1">
                    <mxGeometry x="660" y="310" width="110" height="50" as="geometry"/>
                </mxCell>
                <mxCell id="22" value="&lt;font&gt;Nhap Ten Can Tim Kiem&lt;/font&gt;" style="rounded=0;whiteSpace=wrap;html=1;fontSize=18;fontColor=#666666;labelBackgroundColor=default;labelBorderColor=#000000;fillColor=#666666;" vertex="1" parent="1">
                    <mxGeometry x="420" y="310" width="220" height="55" as="geometry"/>
                </mxCell>
                <mxCell id="23" value="Image" style="whiteSpace=wrap;html=1;aspect=fixed;fontSize=18;fontColor=#000000;fillColor=#666666;" vertex="1" parent="1">
                    <mxGeometry x="334" y="520" width="80" height="80" as="geometry"/>
                </mxCell>
                <mxCell id="24" value="Image" style="whiteSpace=wrap;html=1;aspect=fixed;fontSize=18;fontColor=#000000;fillColor=#666666;" vertex="1" parent="1">
                    <mxGeometry x="100" y="520" width="80" height="80" as="geometry"/>
                </mxCell>
                <mxCell id="25" value="Image" style="whiteSpace=wrap;html=1;aspect=fixed;fontSize=18;fontColor=#000000;strokeColor=#F0F0F0;fillColor=#666666;" vertex="1" parent="1">
                    <mxGeometry x="220" y="520" width="80" height="80" as="geometry"/>
                </mxCell>
                <mxCell id="26" value="Image" style="whiteSpace=wrap;html=1;aspect=fixed;fontSize=18;fontColor=#000000;fillColor=#666666;" vertex="1" parent="1">
                    <mxGeometry x="440" y="520" width="80" height="80" as="geometry"/>
                </mxCell>
                <mxCell id="27" value="Image" style="whiteSpace=wrap;html=1;aspect=fixed;fontSize=18;fontColor=#000000;fillColor=#666666;" vertex="1" parent="1">
                    <mxGeometry x="550" y="520" width="80" height="80" as="geometry"/>
                </mxCell>
                <mxCell id="28" value="Image" style="whiteSpace=wrap;html=1;aspect=fixed;fontSize=18;fontColor=#000000;fillColor=#666666;" vertex="1" parent="1">
                    <mxGeometry x="660" y="520" width="80" height="80" as="geometry"/>
                </mxCell>
                <mxCell id="30" value="Image" style="whiteSpace=wrap;html=1;aspect=fixed;fontSize=18;fontColor=#000000;fillColor=#666666;" vertex="1" parent="1">
                    <mxGeometry x="334" y="720" width="80" height="80" as="geometry"/>
                </mxCell>
                <mxCell id="31" value="Image" style="whiteSpace=wrap;html=1;aspect=fixed;fontSize=18;fontColor=#000000;fillColor=#666666;" vertex="1" parent="1">
                    <mxGeometry x="100" y="720" width="80" height="80" as="geometry"/>
                </mxCell>
                <mxCell id="32" value="Image" style="whiteSpace=wrap;html=1;aspect=fixed;fontSize=18;fontColor=#000000;fillColor=#666666;" vertex="1" parent="1">
                    <mxGeometry x="220" y="720" width="80" height="80" as="geometry"/>
                </mxCell>
                <mxCell id="33" value="Image" style="whiteSpace=wrap;html=1;aspect=fixed;fontSize=18;fontColor=#000000;fillColor=#666666;" vertex="1" parent="1">
                    <mxGeometry x="440" y="720" width="80" height="80" as="geometry"/>
                </mxCell>
                <mxCell id="34" value="Image" style="whiteSpace=wrap;html=1;aspect=fixed;fontSize=18;fontColor=#000000;fillColor=#666666;" vertex="1" parent="1">
                    <mxGeometry x="550" y="720" width="80" height="80" as="geometry"/>
                </mxCell>
                <mxCell id="35" value="Image" style="whiteSpace=wrap;html=1;aspect=fixed;fontSize=18;fontColor=#000000;fillColor=#666666;" vertex="1" parent="1">
                    <mxGeometry x="660" y="720" width="80" height="80" as="geometry"/>
                </mxCell>
                <mxCell id="36" value="&lt;font style=&quot;font-size: 12px&quot;&gt;Nguyen Van A&lt;/font&gt;" style="text;html=1;strokeColor=none;fillColor=none;align=center;verticalAlign=middle;whiteSpace=wrap;rounded=0;fontSize=18;fontColor=#000000;" vertex="1" parent="1">
                    <mxGeometry x="95" y="610" width="95" height="30" as="geometry"/>
                </mxCell>
                <mxCell id="37" value="&lt;font style=&quot;font-size: 12px&quot;&gt;Nguyen Van A&lt;/font&gt;" style="text;html=1;strokeColor=none;fillColor=none;align=center;verticalAlign=middle;whiteSpace=wrap;rounded=0;fontSize=18;fontColor=#000000;" vertex="1" parent="1">
                    <mxGeometry x="652.5" y="820" width="95" height="30" as="geometry"/>
                </mxCell>
                <mxCell id="38" value="&lt;font style=&quot;font-size: 12px&quot;&gt;Nguyen Van A&lt;/font&gt;" style="text;html=1;strokeColor=none;fillColor=none;align=center;verticalAlign=middle;whiteSpace=wrap;rounded=0;fontSize=18;fontColor=#000000;" vertex="1" parent="1">
                    <mxGeometry x="542.5" y="820" width="95" height="30" as="geometry"/>
                </mxCell>
                <mxCell id="39" value="&lt;font style=&quot;font-size: 12px&quot;&gt;Nguyen Van A&lt;/font&gt;" style="text;html=1;strokeColor=none;fillColor=none;align=center;verticalAlign=middle;whiteSpace=wrap;rounded=0;fontSize=18;fontColor=#000000;" vertex="1" parent="1">
                    <mxGeometry x="432.5" y="820" width="95" height="30" as="geometry"/>
                </mxCell>
                <mxCell id="40" value="&lt;font style=&quot;font-size: 12px&quot;&gt;Nguyen Van A&lt;/font&gt;" style="text;html=1;strokeColor=none;fillColor=none;align=center;verticalAlign=middle;whiteSpace=wrap;rounded=0;fontSize=18;fontColor=#000000;" vertex="1" parent="1">
                    <mxGeometry x="326.5" y="820" width="95" height="30" as="geometry"/>
                </mxCell>
                <mxCell id="41" value="&lt;font style=&quot;font-size: 12px&quot;&gt;Nguyen Van A&lt;/font&gt;" style="text;html=1;strokeColor=none;fillColor=none;align=center;verticalAlign=middle;whiteSpace=wrap;rounded=0;fontSize=18;fontColor=#000000;" vertex="1" parent="1">
                    <mxGeometry x="210" y="820" width="95" height="30" as="geometry"/>
                </mxCell>
                <mxCell id="42" value="&lt;font style=&quot;font-size: 12px&quot;&gt;Nguyen Van A&lt;/font&gt;" style="text;html=1;strokeColor=none;fillColor=none;align=center;verticalAlign=middle;whiteSpace=wrap;rounded=0;fontSize=18;fontColor=#000000;" vertex="1" parent="1">
                    <mxGeometry x="92.5" y="820" width="95" height="30" as="geometry"/>
                </mxCell>
                <mxCell id="45" value="&lt;font style=&quot;font-size: 12px&quot;&gt;Nguyen Van A&lt;/font&gt;" style="text;html=1;strokeColor=none;fillColor=none;align=center;verticalAlign=middle;whiteSpace=wrap;rounded=0;fontSize=18;fontColor=#000000;" vertex="1" parent="1">
                    <mxGeometry x="217.5" y="610" width="95" height="30" as="geometry"/>
                </mxCell>
                <mxCell id="46" value="&lt;font style=&quot;font-size: 12px&quot;&gt;Nguyen Van A&lt;/font&gt;" style="text;html=1;strokeColor=none;fillColor=none;align=center;verticalAlign=middle;whiteSpace=wrap;rounded=0;fontSize=18;fontColor=#000000;" vertex="1" parent="1">
                    <mxGeometry x="326.5" y="610" width="95" height="30" as="geometry"/>
                </mxCell>
                <mxCell id="47" value="&lt;font style=&quot;font-size: 12px&quot;&gt;Nguyen Van A&lt;/font&gt;" style="text;html=1;strokeColor=none;fillColor=none;align=center;verticalAlign=middle;whiteSpace=wrap;rounded=0;fontSize=18;fontColor=#000000;" vertex="1" parent="1">
                    <mxGeometry x="432.5" y="610" width="95" height="30" as="geometry"/>
                </mxCell>
                <mxCell id="48" value="&lt;font style=&quot;font-size: 12px&quot;&gt;Nguyen Van A&lt;/font&gt;" style="text;html=1;strokeColor=none;fillColor=none;align=center;verticalAlign=middle;whiteSpace=wrap;rounded=0;fontSize=18;fontColor=#000000;" vertex="1" parent="1">
                    <mxGeometry x="542.5" y="610" width="95" height="30" as="geometry"/>
                </mxCell>
                <mxCell id="49" value="&lt;font style=&quot;font-size: 12px&quot;&gt;Nguyen Van A&lt;/font&gt;" style="text;html=1;strokeColor=none;fillColor=none;align=center;verticalAlign=middle;whiteSpace=wrap;rounded=0;fontSize=18;fontColor=#000000;" vertex="1" parent="1">
                    <mxGeometry x="652.5" y="610" width="95" height="30" as="geometry"/>
                </mxCell>
                <mxCell id="51" value="Our Address" style="text;html=1;strokeColor=none;fillColor=none;align=center;verticalAlign=middle;whiteSpace=wrap;rounded=0;fontSize=20;fontColor=#000000;" vertex="1" parent="1">
                    <mxGeometry x="120" y="930" width="160" height="30" as="geometry"/>
                </mxCell>
                <mxCell id="52" value="Info3" style="text;html=1;strokeColor=none;fillColor=none;align=center;verticalAlign=middle;whiteSpace=wrap;rounded=0;fontSize=20;fontColor=#000000;" vertex="1" parent="1">
                    <mxGeometry x="157.5" y="1040" width="60" height="40" as="geometry"/>
                </mxCell>
                <mxCell id="53" value="Info2" style="text;html=1;strokeColor=none;fillColor=none;align=center;verticalAlign=middle;whiteSpace=wrap;rounded=0;fontSize=20;fontColor=#000000;" vertex="1" parent="1">
                    <mxGeometry x="160" y="1000" width="60" height="40" as="geometry"/>
                </mxCell>
                <mxCell id="54" value="Info4" style="text;html=1;strokeColor=none;fillColor=none;align=center;verticalAlign=middle;whiteSpace=wrap;rounded=0;fontSize=20;fontColor=#000000;" vertex="1" parent="1">
                    <mxGeometry x="160" y="1090" width="60" height="40" as="geometry"/>
                </mxCell>
                <mxCell id="55" value="Info1" style="text;html=1;strokeColor=none;fillColor=none;align=center;verticalAlign=middle;whiteSpace=wrap;rounded=0;fontSize=20;fontColor=#000000;" vertex="1" parent="1">
                    <mxGeometry x="160" y="960" width="60" height="40" as="geometry"/>
                </mxCell>
                <mxCell id="57" value="G" style="whiteSpace=wrap;html=1;aspect=fixed;fontSize=20;fontColor=#000000;fillColor=#666666;" vertex="1" parent="1">
                    <mxGeometry x="480" y="1000" width="40" height="40" as="geometry"/>
                </mxCell>
                <mxCell id="58" value="FB" style="whiteSpace=wrap;html=1;aspect=fixed;fontSize=20;fontColor=#000000;fillColor=#666666;" vertex="1" parent="1">
                    <mxGeometry x="520" y="1000" width="40" height="40" as="geometry"/>
                </mxCell>
                <mxCell id="59" value="in" style="whiteSpace=wrap;html=1;aspect=fixed;fontSize=20;fontColor=#000000;fillColor=#666666;" vertex="1" parent="1">
                    <mxGeometry x="560" y="1000" width="40" height="40" as="geometry"/>
                </mxCell>
                <mxCell id="60" value="S" style="whiteSpace=wrap;html=1;aspect=fixed;fontSize=20;fontColor=#000000;fillColor=#666666;" vertex="1" parent="1">
                    <mxGeometry x="600" y="1000" width="40" height="40" as="geometry"/>
                </mxCell>
                <mxCell id="62" value="Y" style="whiteSpace=wrap;html=1;aspect=fixed;fontSize=20;fontColor=#000000;fillColor=#666666;" vertex="1" parent="1">
                    <mxGeometry x="637.5" y="1000" width="42.5" height="42.5" as="geometry"/>
                </mxCell>
                <mxCell id="63" value="M" style="whiteSpace=wrap;html=1;aspect=fixed;fontSize=20;fontColor=#000000;fillColor=#666666;" vertex="1" parent="1">
                    <mxGeometry x="680" y="1000" width="40" height="40" as="geometry"/>
                </mxCell>
                <mxCell id="65" value="@Copyright by Lam Nhat Tien" style="text;html=1;strokeColor=none;fillColor=none;align=center;verticalAlign=middle;whiteSpace=wrap;rounded=0;fontSize=20;fontColor=#000000;" vertex="1" parent="1">
                    <mxGeometry x="251" y="1120" width="326" height="30" as="geometry"/>
                </mxCell>
            </root>
        </mxGraphModel>
    </diagram>
    <diagram id="CeX6dapSnmGhuJYkLsnn" name="Page-2">
        <mxGraphModel dx="867" dy="637" grid="1" gridSize="10" guides="1" tooltips="1" connect="1" arrows="1" fold="1" page="1" pageScale="1" pageWidth="827" pageHeight="1169" background="#FFFFFF" math="0" shadow="0">
            <root>
                <mxCell id="h_-iiv8tMnmha8jKjTn5-0"/>
                <mxCell id="h_-iiv8tMnmha8jKjTn5-1" parent="h_-iiv8tMnmha8jKjTn5-0"/>
                <mxCell id="89Q09Vo5mELYKOSeJhai-0" value="Logo" style="rounded=0;whiteSpace=wrap;html=1;fontColor=#000000;fillColor=#666666;" vertex="1" parent="h_-iiv8tMnmha8jKjTn5-1">
                    <mxGeometry x="60" y="20" width="120" height="60" as="geometry"/>
                </mxCell>
                <mxCell id="89Q09Vo5mELYKOSeJhai-1" value="Nhan Vien" style="rounded=1;whiteSpace=wrap;html=1;fontColor=#000000;fillColor=#666666;" vertex="1" parent="h_-iiv8tMnmha8jKjTn5-1">
                    <mxGeometry x="240" y="30" width="80" height="40" as="geometry"/>
                </mxCell>
                <mxCell id="89Q09Vo5mELYKOSeJhai-2" value="Phong Ban" style="rounded=1;whiteSpace=wrap;html=1;fontColor=#000000;fillColor=#666666;" vertex="1" parent="h_-iiv8tMnmha8jKjTn5-1">
                    <mxGeometry x="360" y="30" width="80" height="40" as="geometry"/>
                </mxCell>
                <mxCell id="89Q09Vo5mELYKOSeJhai-3" value="Bang Luong" style="rounded=1;whiteSpace=wrap;html=1;fontColor=#000000;fillColor=#666666;" vertex="1" parent="h_-iiv8tMnmha8jKjTn5-1">
                    <mxGeometry x="480" y="30" width="80" height="40" as="geometry"/>
                </mxCell>
                <mxCell id="89Q09Vo5mELYKOSeJhai-4" value="" style="endArrow=none;fontColor=#000000;labelBackgroundColor=#000000;labelBorderColor=#000000;spacing=2;verticalAlign=middle;html=1;strokeColor=#000000;" edge="1" parent="h_-iiv8tMnmha8jKjTn5-1">
                    <mxGeometry width="50" height="50" relative="1" as="geometry">
                        <mxPoint x="40" y="100" as="sourcePoint"/>
                        <mxPoint x="800" y="100" as="targetPoint"/>
                    </mxGeometry>
                </mxCell>
                <mxCell id="89Q09Vo5mELYKOSeJhai-5" value="" style="endArrow=none;html=1;fontColor=#000000;strokeColor=#000000;" edge="1" parent="h_-iiv8tMnmha8jKjTn5-1">
                    <mxGeometry width="50" height="50" relative="1" as="geometry">
                        <mxPoint x="40" y="279.9999999999999" as="sourcePoint"/>
                        <mxPoint x="800" y="279.9999999999999" as="targetPoint"/>
                    </mxGeometry>
                </mxCell>
                <mxCell id="89Q09Vo5mELYKOSeJhai-6" value="" style="endArrow=none;html=1;fontColor=#000000;strokeColor=#000000;" edge="1" parent="h_-iiv8tMnmha8jKjTn5-1">
                    <mxGeometry width="50" height="50" relative="1" as="geometry">
                        <mxPoint x="40" y="920" as="sourcePoint"/>
                        <mxPoint x="800" y="920" as="targetPoint"/>
                    </mxGeometry>
                </mxCell>
                <mxCell id="89Q09Vo5mELYKOSeJhai-7" value="Ung Dung Quan Li Nhan Su v1.0" style="text;html=1;strokeColor=none;fillColor=none;align=center;verticalAlign=middle;whiteSpace=wrap;rounded=0;fontSize=22;fontColor=#000000;" vertex="1" parent="h_-iiv8tMnmha8jKjTn5-1">
                    <mxGeometry x="100" y="160" width="330" height="30" as="geometry"/>
                </mxCell>
                <mxCell id="89Q09Vo5mELYKOSeJhai-8" value="Nhan Vien" style="text;html=1;strokeColor=none;fillColor=none;align=center;verticalAlign=middle;whiteSpace=wrap;rounded=0;fontSize=22;fontColor=#000000;" vertex="1" parent="h_-iiv8tMnmha8jKjTn5-1">
                    <mxGeometry x="90" y="430" width="170" height="30" as="geometry"/>
                </mxCell>
                <mxCell id="89Q09Vo5mELYKOSeJhai-9" value="Nguyen Van A" style="text;html=1;strokeColor=none;fillColor=none;align=center;verticalAlign=middle;whiteSpace=wrap;rounded=0;fontSize=18;fontStyle=1;fontColor=#000000;" vertex="1" parent="h_-iiv8tMnmha8jKjTn5-1">
                    <mxGeometry x="210" y="370" width="155" height="30" as="geometry"/>
                </mxCell>
                <mxCell id="89Q09Vo5mELYKOSeJhai-10" value="Nhan Vien&amp;nbsp; &amp;nbsp;&amp;gt;" style="text;html=1;strokeColor=none;fillColor=none;align=center;verticalAlign=middle;whiteSpace=wrap;rounded=0;fontSize=18;fontColor=#000000;" vertex="1" parent="h_-iiv8tMnmha8jKjTn5-1">
                    <mxGeometry x="80" y="370" width="140" height="30" as="geometry"/>
                </mxCell>
                <mxCell id="89Q09Vo5mELYKOSeJhai-12" value="Search" style="strokeWidth=1;shadow=0;dashed=0;align=center;html=1;shape=mxgraph.mockup.buttons.button;strokeColor=#666666;fontColor=#000000;mainText=;buttonStyle=round;fontSize=17;fontStyle=1;fillColor=#008cff;whiteSpace=wrap;" vertex="1" parent="h_-iiv8tMnmha8jKjTn5-1">
                    <mxGeometry x="660" y="310" width="110" height="50" as="geometry"/>
                </mxCell>
                <mxCell id="89Q09Vo5mELYKOSeJhai-13" value="&lt;font&gt;Nhap Ten Can Tim Kiem&lt;/font&gt;" style="rounded=0;whiteSpace=wrap;html=1;fontSize=18;fontColor=#666666;labelBackgroundColor=default;labelBorderColor=#000000;fillColor=#666666;" vertex="1" parent="h_-iiv8tMnmha8jKjTn5-1">
                    <mxGeometry x="420" y="310" width="220" height="55" as="geometry"/>
                </mxCell>
                <mxCell id="89Q09Vo5mELYKOSeJhai-38" value="Our Address" style="text;html=1;strokeColor=none;fillColor=none;align=center;verticalAlign=middle;whiteSpace=wrap;rounded=0;fontSize=20;fontColor=#000000;" vertex="1" parent="h_-iiv8tMnmha8jKjTn5-1">
                    <mxGeometry x="120" y="930" width="160" height="30" as="geometry"/>
                </mxCell>
                <mxCell id="89Q09Vo5mELYKOSeJhai-39" value="Info3" style="text;html=1;strokeColor=none;fillColor=none;align=center;verticalAlign=middle;whiteSpace=wrap;rounded=0;fontSize=20;fontColor=#000000;" vertex="1" parent="h_-iiv8tMnmha8jKjTn5-1">
                    <mxGeometry x="157.5" y="1040" width="60" height="40" as="geometry"/>
                </mxCell>
                <mxCell id="89Q09Vo5mELYKOSeJhai-40" value="Info2" style="text;html=1;strokeColor=none;fillColor=none;align=center;verticalAlign=middle;whiteSpace=wrap;rounded=0;fontSize=20;fontColor=#000000;" vertex="1" parent="h_-iiv8tMnmha8jKjTn5-1">
                    <mxGeometry x="160" y="1000" width="60" height="40" as="geometry"/>
                </mxCell>
                <mxCell id="89Q09Vo5mELYKOSeJhai-41" value="Info4" style="text;html=1;strokeColor=none;fillColor=none;align=center;verticalAlign=middle;whiteSpace=wrap;rounded=0;fontSize=20;fontColor=#000000;" vertex="1" parent="h_-iiv8tMnmha8jKjTn5-1">
                    <mxGeometry x="160" y="1090" width="60" height="40" as="geometry"/>
                </mxCell>
                <mxCell id="89Q09Vo5mELYKOSeJhai-42" value="Info1" style="text;html=1;strokeColor=none;fillColor=none;align=center;verticalAlign=middle;whiteSpace=wrap;rounded=0;fontSize=20;fontColor=#000000;" vertex="1" parent="h_-iiv8tMnmha8jKjTn5-1">
                    <mxGeometry x="160" y="960" width="60" height="40" as="geometry"/>
                </mxCell>
                <mxCell id="89Q09Vo5mELYKOSeJhai-43" value="G" style="whiteSpace=wrap;html=1;aspect=fixed;fontSize=20;fontColor=#000000;fillColor=#666666;" vertex="1" parent="h_-iiv8tMnmha8jKjTn5-1">
                    <mxGeometry x="480" y="1000" width="40" height="40" as="geometry"/>
                </mxCell>
                <mxCell id="89Q09Vo5mELYKOSeJhai-44" value="FB" style="whiteSpace=wrap;html=1;aspect=fixed;fontSize=20;fontColor=#000000;fillColor=#666666;" vertex="1" parent="h_-iiv8tMnmha8jKjTn5-1">
                    <mxGeometry x="520" y="1000" width="40" height="40" as="geometry"/>
                </mxCell>
                <mxCell id="89Q09Vo5mELYKOSeJhai-45" value="in" style="whiteSpace=wrap;html=1;aspect=fixed;fontSize=20;fontColor=#000000;fillColor=#666666;" vertex="1" parent="h_-iiv8tMnmha8jKjTn5-1">
                    <mxGeometry x="560" y="1000" width="40" height="40" as="geometry"/>
                </mxCell>
                <mxCell id="89Q09Vo5mELYKOSeJhai-46" value="S" style="whiteSpace=wrap;html=1;aspect=fixed;fontSize=20;fontColor=#000000;fillColor=#666666;" vertex="1" parent="h_-iiv8tMnmha8jKjTn5-1">
                    <mxGeometry x="600" y="1000" width="40" height="40" as="geometry"/>
                </mxCell>
                <mxCell id="89Q09Vo5mELYKOSeJhai-47" value="Y" style="whiteSpace=wrap;html=1;aspect=fixed;fontSize=20;fontColor=#000000;fillColor=#666666;" vertex="1" parent="h_-iiv8tMnmha8jKjTn5-1">
                    <mxGeometry x="637.5" y="1000" width="42.5" height="42.5" as="geometry"/>
                </mxCell>
                <mxCell id="89Q09Vo5mELYKOSeJhai-48" value="M" style="whiteSpace=wrap;html=1;aspect=fixed;fontSize=20;fontColor=#000000;fillColor=#666666;" vertex="1" parent="h_-iiv8tMnmha8jKjTn5-1">
                    <mxGeometry x="680" y="1000" width="40" height="40" as="geometry"/>
                </mxCell>
                <mxCell id="89Q09Vo5mELYKOSeJhai-49" value="@Copyright by Lam Nhat Tien" style="text;html=1;strokeColor=none;fillColor=none;align=center;verticalAlign=middle;whiteSpace=wrap;rounded=0;fontSize=20;fontColor=#000000;" vertex="1" parent="h_-iiv8tMnmha8jKjTn5-1">
                    <mxGeometry x="251" y="1120" width="326" height="30" as="geometry"/>
                </mxCell>
                <mxCell id="ZN8wnzYlTjnqoXuM-X8a-0" value="" style="endArrow=none;html=1;fontSize=18;fontColor=#000000;labelBackgroundColor=#2A2A2A;strokeColor=#666666;" edge="1" parent="h_-iiv8tMnmha8jKjTn5-1">
                    <mxGeometry width="50" height="50" relative="1" as="geometry">
                        <mxPoint x="80" y="480" as="sourcePoint"/>
                        <mxPoint x="760" y="480" as="targetPoint"/>
                    </mxGeometry>
                </mxCell>
                <mxCell id="ZN8wnzYlTjnqoXuM-X8a-1" value="Image" style="whiteSpace=wrap;html=1;aspect=fixed;labelBackgroundColor=#FFFFFF;labelBorderColor=#000000;fontSize=20;fontColor=#666666;strokeColor=#2A2A2A;fillColor=#FFFFFF;" vertex="1" parent="h_-iiv8tMnmha8jKjTn5-1">
                    <mxGeometry x="80" y="560" width="240" height="240" as="geometry"/>
                </mxCell>
                <mxCell id="ZN8wnzYlTjnqoXuM-X8a-3" value="Ho va ten : Nguyen Van A&lt;br&gt;&lt;div style=&quot;text-align: left&quot;&gt;Ngay Sinh:&lt;/div&gt;&lt;div style=&quot;text-align: left&quot;&gt;Ngay Vao Cong Ty:&lt;/div&gt;&lt;div style=&quot;text-align: left&quot;&gt;Phong Ban:&amp;nbsp;&lt;/div&gt;&lt;div style=&quot;text-align: left&quot;&gt;So ngay nghi con lai:&amp;nbsp;&lt;/div&gt;&lt;div style=&quot;text-align: left&quot;&gt;So ngay da lam them:&lt;/div&gt;" style="rounded=0;html=1;labelBackgroundColor=#FFFFFF;labelBorderColor=none;fontSize=20;fontColor=#666666;strokeColor=#4D4D4D;fillColor=#FFFFFF;" vertex="1" parent="h_-iiv8tMnmha8jKjTn5-1">
                    <mxGeometry x="340" y="560" width="420" height="240" as="geometry"/>
                </mxCell>
            </root>
        </mxGraphModel>
    </diagram>
    <diagram id="9AeH_Mwoew1v5IrmeFc6" name="Page-3">
        <mxGraphModel dx="867" dy="637" grid="1" gridSize="10" guides="1" tooltips="1" connect="1" arrows="1" fold="1" page="1" pageScale="1" pageWidth="850" pageHeight="1100" background="#ffffff" math="0" shadow="0">
            <root>
                <mxCell id="xo6xV2HuKBxZmd5nvMey-0"/>
                <mxCell id="xo6xV2HuKBxZmd5nvMey-1" parent="xo6xV2HuKBxZmd5nvMey-0"/>
                <mxCell id="gFKfM1Jf-DYJF9rFmWO1-50" value="Logo" style="rounded=0;whiteSpace=wrap;html=1;fontColor=#000000;fillColor=#666666;" vertex="1" parent="xo6xV2HuKBxZmd5nvMey-1">
                    <mxGeometry x="70" y="30" width="120" height="60" as="geometry"/>
                </mxCell>
                <mxCell id="gFKfM1Jf-DYJF9rFmWO1-51" value="Nhan Vien" style="rounded=1;whiteSpace=wrap;html=1;fontColor=#000000;fillColor=#666666;" vertex="1" parent="xo6xV2HuKBxZmd5nvMey-1">
                    <mxGeometry x="250" y="40" width="80" height="40" as="geometry"/>
                </mxCell>
                <mxCell id="gFKfM1Jf-DYJF9rFmWO1-52" value="Phong Ban" style="rounded=1;whiteSpace=wrap;html=1;fontColor=#000000;fillColor=#666666;" vertex="1" parent="xo6xV2HuKBxZmd5nvMey-1">
                    <mxGeometry x="370" y="40" width="80" height="40" as="geometry"/>
                </mxCell>
                <mxCell id="gFKfM1Jf-DYJF9rFmWO1-53" value="Bang Luong" style="rounded=1;whiteSpace=wrap;html=1;fontColor=#000000;fillColor=#666666;" vertex="1" parent="xo6xV2HuKBxZmd5nvMey-1">
                    <mxGeometry x="490" y="40" width="80" height="40" as="geometry"/>
                </mxCell>
                <mxCell id="gFKfM1Jf-DYJF9rFmWO1-54" value="" style="endArrow=none;fontColor=#000000;labelBackgroundColor=#000000;labelBorderColor=#000000;spacing=2;verticalAlign=middle;html=1;strokeColor=#000000;" edge="1" parent="xo6xV2HuKBxZmd5nvMey-1">
                    <mxGeometry width="50" height="50" relative="1" as="geometry">
                        <mxPoint x="50" y="110" as="sourcePoint"/>
                        <mxPoint x="810" y="110" as="targetPoint"/>
                    </mxGeometry>
                </mxCell>
                <mxCell id="gFKfM1Jf-DYJF9rFmWO1-55" value="" style="endArrow=none;html=1;fontColor=#000000;strokeColor=#000000;" edge="1" parent="xo6xV2HuKBxZmd5nvMey-1">
                    <mxGeometry width="50" height="50" relative="1" as="geometry">
                        <mxPoint x="50" y="289.9999999999999" as="sourcePoint"/>
                        <mxPoint x="810" y="289.9999999999999" as="targetPoint"/>
                    </mxGeometry>
                </mxCell>
                <mxCell id="gFKfM1Jf-DYJF9rFmWO1-56" value="" style="endArrow=none;html=1;fontColor=#000000;strokeColor=#000000;" edge="1" parent="xo6xV2HuKBxZmd5nvMey-1">
                    <mxGeometry width="50" height="50" relative="1" as="geometry">
                        <mxPoint x="50" y="930" as="sourcePoint"/>
                        <mxPoint x="810" y="930" as="targetPoint"/>
                    </mxGeometry>
                </mxCell>
                <mxCell id="gFKfM1Jf-DYJF9rFmWO1-57" value="Ung Dung Quan Li Nhan Su v1.0" style="text;html=1;strokeColor=none;fillColor=none;align=center;verticalAlign=middle;whiteSpace=wrap;rounded=0;fontSize=22;fontColor=#000000;" vertex="1" parent="xo6xV2HuKBxZmd5nvMey-1">
                    <mxGeometry x="110" y="170" width="330" height="30" as="geometry"/>
                </mxCell>
                <mxCell id="gFKfM1Jf-DYJF9rFmWO1-58" value="Bang Luong" style="text;html=1;strokeColor=none;fillColor=none;align=center;verticalAlign=middle;whiteSpace=wrap;rounded=0;fontSize=22;fontColor=#000000;" vertex="1" parent="xo6xV2HuKBxZmd5nvMey-1">
                    <mxGeometry x="100" y="440" width="170" height="30" as="geometry"/>
                </mxCell>
                <mxCell id="gFKfM1Jf-DYJF9rFmWO1-61" value="" style="endArrow=none;html=1;fontSize=18;fontColor=#000000;labelBackgroundColor=#2A2A2A;strokeColor=#666666;" edge="1" parent="xo6xV2HuKBxZmd5nvMey-1">
                    <mxGeometry width="50" height="50" relative="1" as="geometry">
                        <mxPoint x="90" y="490" as="sourcePoint"/>
                        <mxPoint x="770" y="490" as="targetPoint"/>
                    </mxGeometry>
                </mxCell>
                <mxCell id="gFKfM1Jf-DYJF9rFmWO1-62" value="Search" style="strokeWidth=1;shadow=0;dashed=0;align=center;html=1;shape=mxgraph.mockup.buttons.button;strokeColor=#666666;fontColor=#000000;mainText=;buttonStyle=round;fontSize=17;fontStyle=1;fillColor=#008cff;whiteSpace=wrap;" vertex="1" parent="xo6xV2HuKBxZmd5nvMey-1">
                    <mxGeometry x="670" y="320" width="110" height="50" as="geometry"/>
                </mxCell>
                <mxCell id="gFKfM1Jf-DYJF9rFmWO1-63" value="&lt;font&gt;Nhap Ten Can Tim Kiem&lt;/font&gt;" style="rounded=0;whiteSpace=wrap;html=1;fontSize=18;fontColor=#666666;labelBackgroundColor=default;labelBorderColor=#000000;fillColor=#666666;" vertex="1" parent="xo6xV2HuKBxZmd5nvMey-1">
                    <mxGeometry x="430" y="320" width="220" height="55" as="geometry"/>
                </mxCell>
                <mxCell id="gFKfM1Jf-DYJF9rFmWO1-88" value="Our Address" style="text;html=1;strokeColor=none;fillColor=none;align=center;verticalAlign=middle;whiteSpace=wrap;rounded=0;fontSize=20;fontColor=#000000;" vertex="1" parent="xo6xV2HuKBxZmd5nvMey-1">
                    <mxGeometry x="130" y="940" width="160" height="30" as="geometry"/>
                </mxCell>
                <mxCell id="gFKfM1Jf-DYJF9rFmWO1-89" value="Info3" style="text;html=1;strokeColor=none;fillColor=none;align=center;verticalAlign=middle;whiteSpace=wrap;rounded=0;fontSize=20;fontColor=#000000;" vertex="1" parent="xo6xV2HuKBxZmd5nvMey-1">
                    <mxGeometry x="167.5" y="1050" width="60" height="40" as="geometry"/>
                </mxCell>
                <mxCell id="gFKfM1Jf-DYJF9rFmWO1-90" value="Info2" style="text;html=1;strokeColor=none;fillColor=none;align=center;verticalAlign=middle;whiteSpace=wrap;rounded=0;fontSize=20;fontColor=#000000;" vertex="1" parent="xo6xV2HuKBxZmd5nvMey-1">
                    <mxGeometry x="170" y="1010" width="60" height="40" as="geometry"/>
                </mxCell>
                <mxCell id="gFKfM1Jf-DYJF9rFmWO1-91" value="Info4" style="text;html=1;strokeColor=none;fillColor=none;align=center;verticalAlign=middle;whiteSpace=wrap;rounded=0;fontSize=20;fontColor=#000000;" vertex="1" parent="xo6xV2HuKBxZmd5nvMey-1">
                    <mxGeometry x="170" y="1100" width="60" height="40" as="geometry"/>
                </mxCell>
                <mxCell id="gFKfM1Jf-DYJF9rFmWO1-92" value="Info1" style="text;html=1;strokeColor=none;fillColor=none;align=center;verticalAlign=middle;whiteSpace=wrap;rounded=0;fontSize=20;fontColor=#000000;" vertex="1" parent="xo6xV2HuKBxZmd5nvMey-1">
                    <mxGeometry x="170" y="970" width="60" height="40" as="geometry"/>
                </mxCell>
                <mxCell id="gFKfM1Jf-DYJF9rFmWO1-93" value="G" style="whiteSpace=wrap;html=1;aspect=fixed;fontSize=20;fontColor=#000000;fillColor=#666666;" vertex="1" parent="xo6xV2HuKBxZmd5nvMey-1">
                    <mxGeometry x="490" y="1010" width="40" height="40" as="geometry"/>
                </mxCell>
                <mxCell id="gFKfM1Jf-DYJF9rFmWO1-94" value="FB" style="whiteSpace=wrap;html=1;aspect=fixed;fontSize=20;fontColor=#000000;fillColor=#666666;" vertex="1" parent="xo6xV2HuKBxZmd5nvMey-1">
                    <mxGeometry x="530" y="1010" width="40" height="40" as="geometry"/>
                </mxCell>
                <mxCell id="gFKfM1Jf-DYJF9rFmWO1-95" value="in" style="whiteSpace=wrap;html=1;aspect=fixed;fontSize=20;fontColor=#000000;fillColor=#666666;" vertex="1" parent="xo6xV2HuKBxZmd5nvMey-1">
                    <mxGeometry x="570" y="1010" width="40" height="40" as="geometry"/>
                </mxCell>
                <mxCell id="gFKfM1Jf-DYJF9rFmWO1-96" value="S" style="whiteSpace=wrap;html=1;aspect=fixed;fontSize=20;fontColor=#000000;fillColor=#666666;" vertex="1" parent="xo6xV2HuKBxZmd5nvMey-1">
                    <mxGeometry x="610" y="1010" width="40" height="40" as="geometry"/>
                </mxCell>
                <mxCell id="gFKfM1Jf-DYJF9rFmWO1-97" value="Y" style="whiteSpace=wrap;html=1;aspect=fixed;fontSize=20;fontColor=#000000;fillColor=#666666;" vertex="1" parent="xo6xV2HuKBxZmd5nvMey-1">
                    <mxGeometry x="647.5" y="1010" width="42.5" height="42.5" as="geometry"/>
                </mxCell>
                <mxCell id="gFKfM1Jf-DYJF9rFmWO1-98" value="M" style="whiteSpace=wrap;html=1;aspect=fixed;fontSize=20;fontColor=#000000;fillColor=#666666;" vertex="1" parent="xo6xV2HuKBxZmd5nvMey-1">
                    <mxGeometry x="690" y="1010" width="40" height="40" as="geometry"/>
                </mxCell>
                <mxCell id="gFKfM1Jf-DYJF9rFmWO1-99" value="@Copyright by Lam Nhat Tien" style="text;html=1;strokeColor=none;fillColor=none;align=center;verticalAlign=middle;whiteSpace=wrap;rounded=0;fontSize=20;fontColor=#000000;" vertex="1" parent="xo6xV2HuKBxZmd5nvMey-1">
                    <mxGeometry x="261" y="1130" width="326" height="30" as="geometry"/>
                </mxCell>
                <mxCell id="vLoIG8EvI5X-MByu2yf8-2" value="Bang Luong" style="text;html=1;strokeColor=none;fillColor=none;align=center;verticalAlign=middle;whiteSpace=wrap;rounded=0;fontSize=18;fontStyle=1;fontColor=#000000;" vertex="1" parent="xo6xV2HuKBxZmd5nvMey-1">
                    <mxGeometry x="220" y="380" width="120" height="30" as="geometry"/>
                </mxCell>
                <mxCell id="vLoIG8EvI5X-MByu2yf8-3" value="Nhan Vien&amp;nbsp; &amp;nbsp;&amp;gt;" style="text;html=1;strokeColor=none;fillColor=none;align=center;verticalAlign=middle;whiteSpace=wrap;rounded=0;fontSize=18;fontColor=#000000;" vertex="1" parent="xo6xV2HuKBxZmd5nvMey-1">
                    <mxGeometry x="90" y="380" width="140" height="30" as="geometry"/>
                </mxCell>
                <mxCell id="vLoIG8EvI5X-MByu2yf8-4" value="" style="rounded=0;whiteSpace=wrap;html=1;labelBackgroundColor=#FFFFFF;labelBorderColor=none;fontSize=20;fontColor=#666666;strokeColor=#2A2A2A;fillColor=#FFFFFF;align=left;" vertex="1" parent="xo6xV2HuKBxZmd5nvMey-1">
                    <mxGeometry x="120" y="520" width="160" height="160" as="geometry"/>
                </mxCell>
                <mxCell id="vLoIG8EvI5X-MByu2yf8-5" value="Nguyen Van A&lt;br style=&quot;font-size: 14px&quot;&gt;Ma Nhan Vien :&lt;br style=&quot;font-size: 14px&quot;&gt;He So Luong :&lt;br style=&quot;font-size: 14px&quot;&gt;So Gio Lam Them :" style="rounded=0;whiteSpace=wrap;html=1;labelBackgroundColor=#FFFFFF;labelBorderColor=none;fontSize=14;fontColor=#666666;strokeColor=#2A2A2A;fillColor=#FFFFFF;align=left;" vertex="1" parent="xo6xV2HuKBxZmd5nvMey-1">
                    <mxGeometry x="130" y="530" width="140" height="100" as="geometry"/>
                </mxCell>
                <mxCell id="vLoIG8EvI5X-MByu2yf8-6" value="Luong : 250000" style="rounded=0;whiteSpace=wrap;html=1;labelBackgroundColor=#FFFFFF;labelBorderColor=none;fontSize=14;fontColor=#666666;strokeColor=#2A2A2A;fillColor=#FFFFFF;" vertex="1" parent="xo6xV2HuKBxZmd5nvMey-1">
                    <mxGeometry x="137.5" y="640" width="120" height="30" as="geometry"/>
                </mxCell>
                <mxCell id="vLoIG8EvI5X-MByu2yf8-28" value="" style="rounded=0;whiteSpace=wrap;html=1;labelBackgroundColor=#FFFFFF;labelBorderColor=none;fontSize=20;fontColor=#666666;strokeColor=#2A2A2A;fillColor=#FFFFFF;align=left;" vertex="1" parent="xo6xV2HuKBxZmd5nvMey-1">
                    <mxGeometry x="120" y="720" width="160" height="160" as="geometry"/>
                </mxCell>
                <mxCell id="vLoIG8EvI5X-MByu2yf8-29" value="Nguyen Van A&lt;br style=&quot;font-size: 14px&quot;&gt;Ma Nhan Vien :&lt;br style=&quot;font-size: 14px&quot;&gt;He So Luong :&lt;br style=&quot;font-size: 14px&quot;&gt;So Gio Lam Them :" style="rounded=0;whiteSpace=wrap;html=1;labelBackgroundColor=#FFFFFF;labelBorderColor=none;fontSize=14;fontColor=#666666;strokeColor=#2A2A2A;fillColor=#FFFFFF;align=left;" vertex="1" parent="xo6xV2HuKBxZmd5nvMey-1">
                    <mxGeometry x="130" y="730" width="140" height="100" as="geometry"/>
                </mxCell>
                <mxCell id="vLoIG8EvI5X-MByu2yf8-30" value="Luong : 250000" style="rounded=0;whiteSpace=wrap;html=1;labelBackgroundColor=#FFFFFF;labelBorderColor=none;fontSize=14;fontColor=#666666;strokeColor=#2A2A2A;fillColor=#FFFFFF;" vertex="1" parent="xo6xV2HuKBxZmd5nvMey-1">
                    <mxGeometry x="137.5" y="840" width="120" height="30" as="geometry"/>
                </mxCell>
                <mxCell id="vLoIG8EvI5X-MByu2yf8-31" value="" style="rounded=0;whiteSpace=wrap;html=1;labelBackgroundColor=#FFFFFF;labelBorderColor=none;fontSize=20;fontColor=#666666;strokeColor=#2A2A2A;fillColor=#FFFFFF;align=left;" vertex="1" parent="xo6xV2HuKBxZmd5nvMey-1">
                    <mxGeometry x="360" y="720" width="160" height="160" as="geometry"/>
                </mxCell>
                <mxCell id="vLoIG8EvI5X-MByu2yf8-32" value="Nguyen Van A&lt;br style=&quot;font-size: 14px&quot;&gt;Ma Nhan Vien :&lt;br style=&quot;font-size: 14px&quot;&gt;He So Luong :&lt;br style=&quot;font-size: 14px&quot;&gt;So Gio Lam Them :" style="rounded=0;whiteSpace=wrap;html=1;labelBackgroundColor=#FFFFFF;labelBorderColor=none;fontSize=14;fontColor=#666666;strokeColor=#2A2A2A;fillColor=#FFFFFF;align=left;" vertex="1" parent="xo6xV2HuKBxZmd5nvMey-1">
                    <mxGeometry x="370" y="730" width="140" height="100" as="geometry"/>
                </mxCell>
                <mxCell id="vLoIG8EvI5X-MByu2yf8-33" value="Luong : 250000" style="rounded=0;whiteSpace=wrap;html=1;labelBackgroundColor=#FFFFFF;labelBorderColor=none;fontSize=14;fontColor=#666666;strokeColor=#2A2A2A;fillColor=#FFFFFF;" vertex="1" parent="xo6xV2HuKBxZmd5nvMey-1">
                    <mxGeometry x="377.5" y="840" width="120" height="30" as="geometry"/>
                </mxCell>
                <mxCell id="vLoIG8EvI5X-MByu2yf8-34" value="" style="rounded=0;whiteSpace=wrap;html=1;labelBackgroundColor=#FFFFFF;labelBorderColor=none;fontSize=20;fontColor=#666666;strokeColor=#2A2A2A;fillColor=#FFFFFF;align=left;" vertex="1" parent="xo6xV2HuKBxZmd5nvMey-1">
                    <mxGeometry x="600" y="720" width="160" height="160" as="geometry"/>
                </mxCell>
                <mxCell id="vLoIG8EvI5X-MByu2yf8-35" value="Nguyen Van A&lt;br style=&quot;font-size: 14px&quot;&gt;Ma Nhan Vien :&lt;br style=&quot;font-size: 14px&quot;&gt;He So Luong :&lt;br style=&quot;font-size: 14px&quot;&gt;So Gio Lam Them :" style="rounded=0;whiteSpace=wrap;html=1;labelBackgroundColor=#FFFFFF;labelBorderColor=none;fontSize=14;fontColor=#666666;strokeColor=#2A2A2A;fillColor=#FFFFFF;align=left;" vertex="1" parent="xo6xV2HuKBxZmd5nvMey-1">
                    <mxGeometry x="610" y="730" width="140" height="100" as="geometry"/>
                </mxCell>
                <mxCell id="vLoIG8EvI5X-MByu2yf8-36" value="Luong : 250000" style="rounded=0;whiteSpace=wrap;html=1;labelBackgroundColor=#FFFFFF;labelBorderColor=none;fontSize=14;fontColor=#666666;strokeColor=#2A2A2A;fillColor=#FFFFFF;" vertex="1" parent="xo6xV2HuKBxZmd5nvMey-1">
                    <mxGeometry x="617.5" y="840" width="120" height="30" as="geometry"/>
                </mxCell>
                <mxCell id="vLoIG8EvI5X-MByu2yf8-37" value="" style="rounded=0;whiteSpace=wrap;html=1;labelBackgroundColor=#FFFFFF;labelBorderColor=none;fontSize=20;fontColor=#666666;strokeColor=#2A2A2A;fillColor=#FFFFFF;align=left;" vertex="1" parent="xo6xV2HuKBxZmd5nvMey-1">
                    <mxGeometry x="597.5" y="520" width="160" height="160" as="geometry"/>
                </mxCell>
                <mxCell id="vLoIG8EvI5X-MByu2yf8-38" value="Nguyen Van A&lt;br style=&quot;font-size: 14px&quot;&gt;Ma Nhan Vien :&lt;br style=&quot;font-size: 14px&quot;&gt;He So Luong :&lt;br style=&quot;font-size: 14px&quot;&gt;So Gio Lam Them :" style="rounded=0;whiteSpace=wrap;html=1;labelBackgroundColor=#FFFFFF;labelBorderColor=none;fontSize=14;fontColor=#666666;strokeColor=#2A2A2A;fillColor=#FFFFFF;align=left;" vertex="1" parent="xo6xV2HuKBxZmd5nvMey-1">
                    <mxGeometry x="607.5" y="530" width="140" height="100" as="geometry"/>
                </mxCell>
                <mxCell id="vLoIG8EvI5X-MByu2yf8-39" value="Luong : 250000" style="rounded=0;whiteSpace=wrap;html=1;labelBackgroundColor=#FFFFFF;labelBorderColor=none;fontSize=14;fontColor=#666666;strokeColor=#2A2A2A;fillColor=#FFFFFF;" vertex="1" parent="xo6xV2HuKBxZmd5nvMey-1">
                    <mxGeometry x="615" y="640" width="120" height="30" as="geometry"/>
                </mxCell>
                <mxCell id="vLoIG8EvI5X-MByu2yf8-40" value="" style="rounded=0;whiteSpace=wrap;html=1;labelBackgroundColor=#FFFFFF;labelBorderColor=none;fontSize=20;fontColor=#666666;strokeColor=#2A2A2A;fillColor=#FFFFFF;align=left;" vertex="1" parent="xo6xV2HuKBxZmd5nvMey-1">
                    <mxGeometry x="357.5" y="520" width="160" height="160" as="geometry"/>
                </mxCell>
                <mxCell id="vLoIG8EvI5X-MByu2yf8-41" value="Nguyen Van A&lt;br style=&quot;font-size: 14px&quot;&gt;Ma Nhan Vien :&lt;br style=&quot;font-size: 14px&quot;&gt;He So Luong :&lt;br style=&quot;font-size: 14px&quot;&gt;So Gio Lam Them :" style="rounded=0;whiteSpace=wrap;html=1;labelBackgroundColor=#FFFFFF;labelBorderColor=none;fontSize=14;fontColor=#666666;strokeColor=#2A2A2A;fillColor=#FFFFFF;align=left;" vertex="1" parent="xo6xV2HuKBxZmd5nvMey-1">
                    <mxGeometry x="367.5" y="530" width="140" height="100" as="geometry"/>
                </mxCell>
                <mxCell id="vLoIG8EvI5X-MByu2yf8-42" value="Luong : 250000" style="rounded=0;whiteSpace=wrap;html=1;labelBackgroundColor=#FFFFFF;labelBorderColor=none;fontSize=14;fontColor=#666666;strokeColor=#2A2A2A;fillColor=#FFFFFF;" vertex="1" parent="xo6xV2HuKBxZmd5nvMey-1">
                    <mxGeometry x="375" y="640" width="120" height="30" as="geometry"/>
                </mxCell>
            </root>
        </mxGraphModel>
    </diagram>
    <diagram id="Tv701qirymRNAbOzTSVF" name="Page-4">
        <mxGraphModel dx="867" dy="637" grid="1" gridSize="10" guides="1" tooltips="1" connect="1" arrows="1" fold="1" page="1" pageScale="1" pageWidth="850" pageHeight="1100" background="#ffffff" math="0" shadow="0">
            <root>
                <mxCell id="kFCukVArAZvHu3ld8_C5-0"/>
                <mxCell id="kFCukVArAZvHu3ld8_C5-1" parent="kFCukVArAZvHu3ld8_C5-0"/>
                <mxCell id="Ta1HjcI03TmPa3T-Xdbm-0" value="Logo" style="rounded=0;whiteSpace=wrap;html=1;fontColor=#000000;fillColor=#666666;" vertex="1" parent="kFCukVArAZvHu3ld8_C5-1">
                    <mxGeometry x="60" y="20" width="120" height="60" as="geometry"/>
                </mxCell>
                <mxCell id="Ta1HjcI03TmPa3T-Xdbm-1" value="Nhan Vien" style="rounded=1;whiteSpace=wrap;html=1;fontColor=#000000;fillColor=#666666;" vertex="1" parent="kFCukVArAZvHu3ld8_C5-1">
                    <mxGeometry x="240" y="30" width="80" height="40" as="geometry"/>
                </mxCell>
                <mxCell id="Ta1HjcI03TmPa3T-Xdbm-2" value="Phong Ban" style="rounded=1;whiteSpace=wrap;html=1;fontColor=#000000;fillColor=#666666;" vertex="1" parent="kFCukVArAZvHu3ld8_C5-1">
                    <mxGeometry x="360" y="30" width="80" height="40" as="geometry"/>
                </mxCell>
                <mxCell id="Ta1HjcI03TmPa3T-Xdbm-3" value="Bang Luong" style="rounded=1;whiteSpace=wrap;html=1;fontColor=#000000;fillColor=#666666;" vertex="1" parent="kFCukVArAZvHu3ld8_C5-1">
                    <mxGeometry x="480" y="30" width="80" height="40" as="geometry"/>
                </mxCell>
                <mxCell id="Ta1HjcI03TmPa3T-Xdbm-4" value="" style="endArrow=none;fontColor=#000000;labelBackgroundColor=#000000;labelBorderColor=#000000;spacing=2;verticalAlign=middle;html=1;strokeColor=#000000;" edge="1" parent="kFCukVArAZvHu3ld8_C5-1">
                    <mxGeometry width="50" height="50" relative="1" as="geometry">
                        <mxPoint x="40" y="100" as="sourcePoint"/>
                        <mxPoint x="800" y="100" as="targetPoint"/>
                    </mxGeometry>
                </mxCell>
                <mxCell id="Ta1HjcI03TmPa3T-Xdbm-5" value="" style="endArrow=none;html=1;fontColor=#000000;strokeColor=#000000;" edge="1" parent="kFCukVArAZvHu3ld8_C5-1">
                    <mxGeometry width="50" height="50" relative="1" as="geometry">
                        <mxPoint x="40" y="279.9999999999999" as="sourcePoint"/>
                        <mxPoint x="800" y="279.9999999999999" as="targetPoint"/>
                    </mxGeometry>
                </mxCell>
                <mxCell id="Ta1HjcI03TmPa3T-Xdbm-7" value="Ung Dung Quan Li Nhan Su v1.0" style="text;html=1;strokeColor=none;fillColor=none;align=center;verticalAlign=middle;whiteSpace=wrap;rounded=0;fontSize=22;fontColor=#000000;" vertex="1" parent="kFCukVArAZvHu3ld8_C5-1">
                    <mxGeometry x="100" y="160" width="330" height="30" as="geometry"/>
                </mxCell>
                <mxCell id="Ta1HjcI03TmPa3T-Xdbm-12" value="Search" style="strokeWidth=1;shadow=0;dashed=0;align=center;html=1;shape=mxgraph.mockup.buttons.button;strokeColor=#666666;fontColor=#000000;mainText=;buttonStyle=round;fontSize=17;fontStyle=1;fillColor=#008cff;whiteSpace=wrap;" vertex="1" parent="kFCukVArAZvHu3ld8_C5-1">
                    <mxGeometry x="660" y="310" width="110" height="50" as="geometry"/>
                </mxCell>
                <mxCell id="Ta1HjcI03TmPa3T-Xdbm-13" value="&lt;font&gt;Nhap Ten Can Tim Kiem&lt;/font&gt;" style="rounded=0;whiteSpace=wrap;html=1;fontSize=18;fontColor=#666666;labelBackgroundColor=default;labelBorderColor=#000000;fillColor=#666666;" vertex="1" parent="kFCukVArAZvHu3ld8_C5-1">
                    <mxGeometry x="420" y="310" width="220" height="55" as="geometry"/>
                </mxCell>
                <mxCell id="Ta1HjcI03TmPa3T-Xdbm-50" value="" style="endArrow=none;html=1;fontColor=#000000;strokeColor=#000000;" edge="1" parent="kFCukVArAZvHu3ld8_C5-1">
                    <mxGeometry width="50" height="50" relative="1" as="geometry">
                        <mxPoint x="40" y="920" as="sourcePoint"/>
                        <mxPoint x="800" y="920" as="targetPoint"/>
                    </mxGeometry>
                </mxCell>
                <mxCell id="Ta1HjcI03TmPa3T-Xdbm-51" value="Our Address" style="text;html=1;strokeColor=none;fillColor=none;align=center;verticalAlign=middle;whiteSpace=wrap;rounded=0;fontSize=20;fontColor=#000000;" vertex="1" parent="kFCukVArAZvHu3ld8_C5-1">
                    <mxGeometry x="120" y="930" width="160" height="30" as="geometry"/>
                </mxCell>
                <mxCell id="Ta1HjcI03TmPa3T-Xdbm-52" value="Info3" style="text;html=1;strokeColor=none;fillColor=none;align=center;verticalAlign=middle;whiteSpace=wrap;rounded=0;fontSize=20;fontColor=#000000;" vertex="1" parent="kFCukVArAZvHu3ld8_C5-1">
                    <mxGeometry x="157.5" y="1040" width="60" height="40" as="geometry"/>
                </mxCell>
                <mxCell id="Ta1HjcI03TmPa3T-Xdbm-53" value="Info2" style="text;html=1;strokeColor=none;fillColor=none;align=center;verticalAlign=middle;whiteSpace=wrap;rounded=0;fontSize=20;fontColor=#000000;" vertex="1" parent="kFCukVArAZvHu3ld8_C5-1">
                    <mxGeometry x="160" y="1000" width="60" height="40" as="geometry"/>
                </mxCell>
                <mxCell id="Ta1HjcI03TmPa3T-Xdbm-54" value="Info4" style="text;html=1;strokeColor=none;fillColor=none;align=center;verticalAlign=middle;whiteSpace=wrap;rounded=0;fontSize=20;fontColor=#000000;" vertex="1" parent="kFCukVArAZvHu3ld8_C5-1">
                    <mxGeometry x="160" y="1090" width="60" height="40" as="geometry"/>
                </mxCell>
                <mxCell id="Ta1HjcI03TmPa3T-Xdbm-55" value="Info1" style="text;html=1;strokeColor=none;fillColor=none;align=center;verticalAlign=middle;whiteSpace=wrap;rounded=0;fontSize=20;fontColor=#000000;" vertex="1" parent="kFCukVArAZvHu3ld8_C5-1">
                    <mxGeometry x="160" y="960" width="60" height="40" as="geometry"/>
                </mxCell>
                <mxCell id="Ta1HjcI03TmPa3T-Xdbm-56" value="G" style="whiteSpace=wrap;html=1;aspect=fixed;fontSize=20;fontColor=#000000;fillColor=#666666;" vertex="1" parent="kFCukVArAZvHu3ld8_C5-1">
                    <mxGeometry x="480" y="1000" width="40" height="40" as="geometry"/>
                </mxCell>
                <mxCell id="Ta1HjcI03TmPa3T-Xdbm-57" value="FB" style="whiteSpace=wrap;html=1;aspect=fixed;fontSize=20;fontColor=#000000;fillColor=#666666;" vertex="1" parent="kFCukVArAZvHu3ld8_C5-1">
                    <mxGeometry x="520" y="1000" width="40" height="40" as="geometry"/>
                </mxCell>
                <mxCell id="Ta1HjcI03TmPa3T-Xdbm-58" value="in" style="whiteSpace=wrap;html=1;aspect=fixed;fontSize=20;fontColor=#000000;fillColor=#666666;" vertex="1" parent="kFCukVArAZvHu3ld8_C5-1">
                    <mxGeometry x="560" y="1000" width="40" height="40" as="geometry"/>
                </mxCell>
                <mxCell id="Ta1HjcI03TmPa3T-Xdbm-59" value="S" style="whiteSpace=wrap;html=1;aspect=fixed;fontSize=20;fontColor=#000000;fillColor=#666666;" vertex="1" parent="kFCukVArAZvHu3ld8_C5-1">
                    <mxGeometry x="600" y="1000" width="40" height="40" as="geometry"/>
                </mxCell>
                <mxCell id="Ta1HjcI03TmPa3T-Xdbm-60" value="Y" style="whiteSpace=wrap;html=1;aspect=fixed;fontSize=20;fontColor=#000000;fillColor=#666666;" vertex="1" parent="kFCukVArAZvHu3ld8_C5-1">
                    <mxGeometry x="637.5" y="1000" width="42.5" height="42.5" as="geometry"/>
                </mxCell>
                <mxCell id="Ta1HjcI03TmPa3T-Xdbm-61" value="M" style="whiteSpace=wrap;html=1;aspect=fixed;fontSize=20;fontColor=#000000;fillColor=#666666;" vertex="1" parent="kFCukVArAZvHu3ld8_C5-1">
                    <mxGeometry x="680" y="1000" width="40" height="40" as="geometry"/>
                </mxCell>
                <mxCell id="Ta1HjcI03TmPa3T-Xdbm-62" value="@Copyright by Lam Nhat Tien" style="text;html=1;strokeColor=none;fillColor=none;align=center;verticalAlign=middle;whiteSpace=wrap;rounded=0;fontSize=20;fontColor=#000000;" vertex="1" parent="kFCukVArAZvHu3ld8_C5-1">
                    <mxGeometry x="251" y="1120" width="326" height="30" as="geometry"/>
                </mxCell>
                <mxCell id="Ta1HjcI03TmPa3T-Xdbm-89" value="" style="rounded=0;whiteSpace=wrap;html=1;labelBackgroundColor=#FFFFFF;labelBorderColor=none;fontSize=14;fontColor=#666666;strokeColor=#2A2A2A;fillColor=#FFFFFF;" vertex="1" parent="kFCukVArAZvHu3ld8_C5-1">
                    <mxGeometry x="60" y="440" width="220" height="120" as="geometry"/>
                </mxCell>
                <mxCell id="Ta1HjcI03TmPa3T-Xdbm-90" value="" style="rounded=0;whiteSpace=wrap;html=1;labelBackgroundColor=#FFFFFF;labelBorderColor=none;fontSize=14;fontColor=#666666;strokeColor=#2A2A2A;fillColor=#FFFFFF;" vertex="1" parent="kFCukVArAZvHu3ld8_C5-1">
                    <mxGeometry x="315" y="440" width="220" height="120" as="geometry"/>
                </mxCell>
                <mxCell id="Ta1HjcI03TmPa3T-Xdbm-91" value="" style="rounded=0;whiteSpace=wrap;html=1;labelBackgroundColor=#FFFFFF;labelBorderColor=none;fontSize=14;fontColor=#666666;strokeColor=#2A2A2A;fillColor=#FFFFFF;" vertex="1" parent="kFCukVArAZvHu3ld8_C5-1">
                    <mxGeometry x="570" y="440" width="210" height="120" as="geometry"/>
                </mxCell>
                <mxCell id="Ta1HjcI03TmPa3T-Xdbm-92" value="" style="rounded=0;whiteSpace=wrap;html=1;labelBackgroundColor=#FFFFFF;labelBorderColor=none;fontSize=14;fontColor=#666666;strokeColor=#2A2A2A;fillColor=#FFFFFF;" vertex="1" parent="kFCukVArAZvHu3ld8_C5-1">
                    <mxGeometry x="60" y="640" width="220" height="120" as="geometry"/>
                </mxCell>
                <mxCell id="Ta1HjcI03TmPa3T-Xdbm-93" value="" style="rounded=0;whiteSpace=wrap;html=1;labelBackgroundColor=#FFFFFF;labelBorderColor=none;fontSize=14;fontColor=#666666;strokeColor=#2A2A2A;fillColor=#FFFFFF;" vertex="1" parent="kFCukVArAZvHu3ld8_C5-1">
                    <mxGeometry x="320" y="640" width="220" height="120" as="geometry"/>
                </mxCell>
                <mxCell id="Ta1HjcI03TmPa3T-Xdbm-94" value="&lt;font style=&quot;font-size: 20px&quot;&gt;Sale&lt;/font&gt;" style="text;html=1;strokeColor=none;fillColor=none;align=center;verticalAlign=middle;whiteSpace=wrap;rounded=0;labelBackgroundColor=#FFFFFF;labelBorderColor=none;fontSize=16;fontColor=#666666;" vertex="1" parent="kFCukVArAZvHu3ld8_C5-1">
                    <mxGeometry x="80" y="460" width="60" height="30" as="geometry"/>
                </mxCell>
                <mxCell id="Ta1HjcI03TmPa3T-Xdbm-95" value="&lt;font style=&quot;font-size: 15px&quot;&gt;So Luong Nhan Vien : 1&lt;/font&gt;" style="text;html=1;strokeColor=none;fillColor=none;align=center;verticalAlign=middle;whiteSpace=wrap;rounded=0;labelBackgroundColor=#FFFFFF;labelBorderColor=none;fontSize=20;fontColor=#666666;" vertex="1" parent="kFCukVArAZvHu3ld8_C5-1">
                    <mxGeometry x="100" y="500" width="170" height="30" as="geometry"/>
                </mxCell>
                <mxCell id="Ta1HjcI03TmPa3T-Xdbm-96" value="&lt;font style=&quot;font-size: 15px&quot;&gt;So Luong Nhan Vien : 1&lt;/font&gt;" style="text;html=1;strokeColor=none;fillColor=none;align=center;verticalAlign=middle;whiteSpace=wrap;rounded=0;labelBackgroundColor=#FFFFFF;labelBorderColor=none;fontSize=20;fontColor=#666666;" vertex="1" parent="kFCukVArAZvHu3ld8_C5-1">
                    <mxGeometry x="360" y="500" width="170" height="30" as="geometry"/>
                </mxCell>
                <mxCell id="Ta1HjcI03TmPa3T-Xdbm-97" value="&lt;font style=&quot;font-size: 15px&quot;&gt;So Luong Nhan Vien : 1&lt;/font&gt;" style="text;html=1;strokeColor=none;fillColor=none;align=center;verticalAlign=middle;whiteSpace=wrap;rounded=0;labelBackgroundColor=#FFFFFF;labelBorderColor=none;fontSize=20;fontColor=#666666;" vertex="1" parent="kFCukVArAZvHu3ld8_C5-1">
                    <mxGeometry x="610" y="500" width="170" height="30" as="geometry"/>
                </mxCell>
                <mxCell id="Ta1HjcI03TmPa3T-Xdbm-98" value="&lt;font style=&quot;font-size: 15px&quot;&gt;So Luong Nhan Vien : 1&lt;/font&gt;" style="text;html=1;strokeColor=none;fillColor=none;align=center;verticalAlign=middle;whiteSpace=wrap;rounded=0;labelBackgroundColor=#FFFFFF;labelBorderColor=none;fontSize=20;fontColor=#666666;" vertex="1" parent="kFCukVArAZvHu3ld8_C5-1">
                    <mxGeometry x="360" y="710" width="170" height="30" as="geometry"/>
                </mxCell>
                <mxCell id="Ta1HjcI03TmPa3T-Xdbm-99" value="&lt;font style=&quot;font-size: 15px&quot;&gt;So Luong Nhan Vien : 1&lt;/font&gt;" style="text;html=1;strokeColor=none;fillColor=none;align=center;verticalAlign=middle;whiteSpace=wrap;rounded=0;labelBackgroundColor=#FFFFFF;labelBorderColor=none;fontSize=20;fontColor=#666666;" vertex="1" parent="kFCukVArAZvHu3ld8_C5-1">
                    <mxGeometry x="102.5" y="710" width="170" height="30" as="geometry"/>
                </mxCell>
                <mxCell id="Ta1HjcI03TmPa3T-Xdbm-100" value="&lt;font style=&quot;font-size: 20px&quot;&gt;HR&lt;/font&gt;" style="text;html=1;strokeColor=none;fillColor=none;align=center;verticalAlign=middle;whiteSpace=wrap;rounded=0;labelBackgroundColor=#FFFFFF;labelBorderColor=none;fontSize=16;fontColor=#666666;" vertex="1" parent="kFCukVArAZvHu3ld8_C5-1">
                    <mxGeometry x="340" y="460" width="60" height="30" as="geometry"/>
                </mxCell>
                <mxCell id="Ta1HjcI03TmPa3T-Xdbm-101" value="&lt;font style=&quot;font-size: 20px&quot;&gt;Marketing&lt;/font&gt;" style="text;html=1;strokeColor=none;fillColor=none;align=center;verticalAlign=middle;whiteSpace=wrap;rounded=0;labelBackgroundColor=#FFFFFF;labelBorderColor=none;fontSize=16;fontColor=#666666;" vertex="1" parent="kFCukVArAZvHu3ld8_C5-1">
                    <mxGeometry x="590" y="460" width="90" height="30" as="geometry"/>
                </mxCell>
                <mxCell id="Ta1HjcI03TmPa3T-Xdbm-102" value="&lt;font style=&quot;font-size: 20px&quot;&gt;IT&lt;/font&gt;" style="text;html=1;strokeColor=none;fillColor=none;align=center;verticalAlign=middle;whiteSpace=wrap;rounded=0;labelBackgroundColor=#FFFFFF;labelBorderColor=none;fontSize=16;fontColor=#666666;" vertex="1" parent="kFCukVArAZvHu3ld8_C5-1">
                    <mxGeometry x="80" y="670" width="60" height="30" as="geometry"/>
                </mxCell>
                <mxCell id="Ta1HjcI03TmPa3T-Xdbm-103" value="&lt;font style=&quot;font-size: 20px&quot;&gt;Finance&lt;/font&gt;" style="text;html=1;strokeColor=none;fillColor=none;align=center;verticalAlign=middle;whiteSpace=wrap;rounded=0;labelBackgroundColor=#FFFFFF;labelBorderColor=none;fontSize=16;fontColor=#666666;" vertex="1" parent="kFCukVArAZvHu3ld8_C5-1">
                    <mxGeometry x="340" y="660" width="90" height="30" as="geometry"/>
                </mxCell>
            </root>
        </mxGraphModel>
    </diagram>
</mxfile>